<svg width="48" height="51" viewBox="0 0 48 51" fill="none" xmlns="http://www.w3.org/2000/svg">
<circle cx="24" cy="27" r="24" fill="#EBEBEB"/>
<path d="M17.5164 20.0325L16.5374 37.0947L16.4119 39.3328L37.9382 36.3026C38.9047 36.1643 39.6452 35.1961 39.7833 33.8759L41.4903 17.6561C41.5907 16.6502 40.9381 15.7198 40.2101 15.8203L18.395 18.8003C17.9055 18.8631 17.5541 19.3661 17.5164 20.0325Z" fill="#9C9C9C"/>
<path d="M35.4403 33.3856L30.6707 15.2797C30.4698 14.5379 29.8046 14.0601 29.0891 14.1481L24.0935 14.8397C23.7295 14.8899 23.3906 15.0911 23.1647 15.418L21.1188 18.2722L7.21137 20.2337C6.35785 20.3594 5.81813 21.2521 6.05661 22.1323L10.4748 38.8676C10.6757 39.6095 11.3409 40.0872 12.0564 39.9867L36.3064 36.6673C39.0176 36.3529 39.1682 35.5231 39.1682 35.5231C36.1558 36.6295 35.4403 33.3981 35.4403 33.3856Z" fill="#CCCCCC"/>
<path fill-rule="evenodd" clip-rule="evenodd" d="M23.5412 26.0929L22.5246 25.4014L20.4406 28.3606L17.4162 26.2941L16.7133 27.2874L19.74 29.3554L17.6545 32.3168L18.6712 33.0084L20.7552 30.0491L23.7799 32.1157L24.4828 31.1224L21.4558 29.0542L23.5412 26.0929Z" fill="white"/>
<path d="M21.6415 12.6693C22.3558 12.3463 22.6698 11.5327 22.3408 10.8393L17.8264 1.19472C17.4985 0.515302 16.6622 0.199361 15.9479 0.522378C15.2336 0.845396 14.9195 1.659 15.2486 2.35242L19.7774 11.9959C20.092 12.6904 20.9415 12.9912 21.6415 12.6693Z" fill="#C4C4C4"/>
<path d="M25.1919 11.7698C25.9439 11.7687 26.5497 11.1374 26.5459 10.3679L26.4937 2.30345C26.4899 1.53396 25.8708 0.911807 25.1188 0.912906C24.3668 0.914004 23.761 1.54529 23.7648 2.31479L23.817 10.3793C23.8208 11.1488 24.441 11.7851 25.1919 11.7698Z" fill="#C4C4C4"/>
<path d="M18.6 15.3336C19.1131 14.7631 19.0827 13.8804 18.5122 13.3673L12.5882 7.94931C12.0177 7.43619 11.135 7.46667 10.6219 8.03716C10.1088 8.60766 10.1392 9.49038 10.7097 10.0035L16.6337 15.4215C17.2031 15.9487 18.0869 15.9041 18.6 15.3336Z" fill="#C4C4C4"/>
</svg>
